<?xml version="1.0"?>
<svg version="1.1" xmlns="http://www.w3.org/2000/svg" width="400px" height="200px" style="border: dashed 2px #aaa"><path fill="#e04710" d="M54.2,109.38l0.56,2.94s1.26,0.7,3.08,0.7c2.044,0,4.284-1.008,4.284-2.996c0-4.312-10.108-2.52-10.108-9.212c0-3.92,3.136-5.572,6.636-5.572c2.66,0,5.908,1.12,5.908,1.12l-0.14,4.76l-1.82,0l-0.952-2.996s-1.428-0.504-2.968-0.504c-2.52,0-3.724,1.316-3.724,2.716c0,4.256,10.08,2.632,10.08,8.932c0,4.2-3.388,6.132-7.308,6.132c-2.94,0-5.768-1.12-5.768-1.12l0-4.9l2.24,0z M78.8568,100.42l0,2.1l-4.06,0l0,8.988c0,1.288,0.616,1.708,1.4,1.708c0.672,0,1.456-0.308,2.184-0.7l0.756,1.484c-1.26,0.924-2.52,1.4-3.92,1.4c-1.68,0-3.22-0.924-3.22-4.06l0-8.82l-2.8,0l0-1.82l2.8-0.28l0-3.528l2.8-0.56l0,4.088l4.06,0z M87.3576,100.28l0.252,2.044c0.7-0.784,2.324-2.324,4.228-2.324c1.4,0,2.52,0.42,2.52,0.42l-0.14,4.06l-1.82,0l-0.42-2.1c-2.1,0-3.444,1.372-4.06,2.184l0,8.316l2.8,0.7l0,1.54l-7.98,0l0-1.54l2.38-0.7l0-10.36l-2.38-0.56l0-1.54z M110.2784,108.12l-9.66,0c0,3.08,1.652,5.04,4.06,5.04c2.8,0,4.704-1.54,4.704-1.54l0.98,1.456s-2.604,2.324-5.964,2.324c-4.48,0-6.72-2.94-6.72-7.56c0-4.48,2.8-7.84,6.86-7.84s5.88,2.38,5.88,6.58c0,0.7-0.14,1.484-0.14,1.54z M100.7304,106.02l6.72,0c0-2.1-0.812-3.836-3.052-3.836s-3.5,1.736-3.668,3.836z M115.8392,104.62l-0.14-3.5s3.08-1.12,5.46-1.12c3.248,0,5.18,1.12,5.18,4.34l0,8.54l2.24,0.56l0,1.54l-4.34,0.14l-0.588-1.96c-0.952,0.952-2.632,2.24-4.592,2.24c-2.66,0-4.2-1.54-4.2-4.2c0-3.22,2.52-4.34,6.44-4.34l2.24,0l0-2.24c0-1.68-0.98-2.52-2.66-2.52s-2.828,0.42-2.828,0.42l-0.392,2.1l-1.82,0z M123.5392,108.68l-1.96,0c-2.8,0-3.864,0.7-3.864,2.38c0,1.26,0.784,2.1,2.044,2.1c2.1,0,3.78-2.24,3.78-2.24l0-2.24z M137.08,100.28l0.252,1.988c0.644-0.616,2.772-2.268,5.068-2.268c2.016,0,3.248,0.952,3.892,2.408c0.364-0.364,2.632-2.408,5.208-2.408c3.08,0,4.34,1.96,4.34,5.04l0,7.84l2.1,0.7l0,1.54l-6.72,0l0-1.54l1.82-0.7l0-7.56c0-1.96-0.56-2.94-2.38-2.94c-2.38,0-3.92,2.24-3.92,2.24l0,8.26l1.82,0.7l0,1.54l-6.44,0l0-1.54l1.82-0.7l0-7.56c0-1.96-0.56-2.94-2.38-2.94c-2.38,0-3.92,2.24-3.92,2.24l0,8.26l1.82,0.7l0,1.54l-7,0l0-1.54l2.38-0.7l0-10.36l-2.38-0.56l0-1.54z M162.8008,113.02l5.88-7.84l-5.18-7.42l-2.1-0.56l0-1.54l7.42-0.14l0,1.68l-1.82,0.56l3.64,5.32l3.64-5.32l-1.96-0.56l0-1.54l7.42-0.14l0,1.68l-2.52,0.56l-5.04,7.28l5.46,7.84l2.38,0.56l0,1.68l-7.56,0l0-1.68l1.68-0.42l-3.92-5.74l-4.2,5.6l2.38,0.56l0,1.68l-7.42,0l0-1.68z"/><path fill="#1b9fcf" d=""/></svg>
